<svg width="586" height="123" viewBox="0 0 586 123" fill="none" xmlns="http://www.w3.org/2000/svg">
<path d="M80.8268 105.373C87.0588 97.4401 90.4431 87.6427 90.4358 77.5548C90.4358 77.0988 90.4358 76.6448 90.4218 76.1888C90.1809 68.1277 87.7887 60.2777 83.4929 53.4523C79.1972 46.6269 73.1543 41.0745 65.9906 37.3704C58.8268 33.6664 50.8028 31.9455 42.7502 32.3862C34.6975 32.8268 26.9092 35.4129 20.1924 39.8765C13.4756 44.3401 8.07464 50.5188 4.54932 57.7722C1.024 65.0255 -0.497435 73.0897 0.142692 81.129C0.78282 89.1682 3.56121 96.89 8.18994 103.494C12.8187 110.098 19.1293 115.344 26.4678 118.689C26.5616 118.747 26.6624 118.792 26.7678 118.824C34.7192 122.388 43.5316 123.576 52.1428 122.245C52.1995 122.258 52.2569 122.267 52.3148 122.273C52.5221 122.268 52.725 122.212 52.9048 122.109C63.6699 120.243 73.3959 114.544 80.2858 106.065C80.3753 106.021 80.4587 105.965 80.5338 105.9C80.6748 105.752 80.7756 105.571 80.8268 105.373ZM27.6998 116.5C23.7368 113.417 24.0168 100.885 28.2608 93.8918C31.3668 88.7588 31.4798 80.7368 28.5178 75.6308C27.7307 74.1194 26.5359 72.8588 25.069 71.9916C23.602 71.1245 21.9215 70.6857 20.2178 70.7248C11.8538 70.9248 8.10084 69.6898 7.62884 57.2408C10.2351 52.4102 13.7521 48.1301 17.9858 44.6368C21.7368 44.8048 24.0588 45.4298 24.8608 46.5048C25.6328 47.5408 25.1458 49.3958 24.5828 51.5448C24.3748 52.3448 24.1588 53.1628 23.9828 54.0338C23.3048 57.4338 24.1908 60.3878 26.3528 61.9338C28.5528 63.5138 31.6988 63.3338 34.9798 61.4438C38.7998 59.2338 40.9728 58.4548 42.2388 58.8508C42.6778 58.9868 43.3458 59.3508 44.0868 60.8978C44.4476 61.738 44.7519 62.6012 44.9978 63.4818C46.2838 67.6818 48.2278 74.0218 58.4218 74.9948C58.9218 75.0438 59.3988 75.0658 59.8578 75.0658C67.5058 75.0658 69.6038 68.5928 71.1578 63.7938C71.8818 61.5608 72.5648 59.4518 73.5788 58.5818C78.5788 54.2818 80.8788 55.1218 82.4438 56.5728C85.8412 62.5931 87.7217 69.35 87.9228 76.2598C87.9358 76.6888 87.9358 77.1198 87.9358 77.5508C87.9459 86.746 84.9727 95.6963 79.4628 103.058C78.5256 102.329 77.4482 101.801 76.2978 101.508C74.1858 100.847 72.1858 100.219 69.9098 92.3908C69.5961 91.0034 68.8649 89.7453 67.8148 88.7858C66.7647 87.8263 65.4459 87.2114 64.0358 87.0238C62.2256 86.8853 60.4128 87.258 58.8039 88.0993C57.1951 88.9407 55.8548 90.217 54.9358 91.7828C54.0954 93.7093 53.5389 95.7475 53.2838 97.8338C52.7528 100.656 51.9508 104.92 50.6708 105.479C49.9345 105.78 49.182 106.04 48.4168 106.258C45.3548 107.202 40.2298 108.783 41.9378 114.358C42.6808 116.805 44.8278 118.782 47.3098 120.217C46.6168 120.251 45.9208 120.27 45.2198 120.27C39.1781 120.274 33.205 118.989 27.6998 116.5Z" fill="#3DCB78"/>
<path d="M62.8229 2.34682C62.7009 0.83882 61.4169 -0.53918 59.6869 0.21082C57.8295 1.00072 55.9296 1.68645 53.9959 2.26482C46.8859 4.49982 44.2029 11.5478 46.8859 15.7718C48.3649 14.1658 50.5609 11.2098 53.4649 10.0578C49.5249 13.4548 46.6118 17.8844 45.0539 22.8478C43.0699 18.5308 37.5079 13.7388 37.1919 13.4688C38.5119 13.8178 41.2749 15.9758 42.9069 18.0148C42.9469 17.9148 43.1899 17.3778 43.2239 17.2758C44.5619 13.3288 41.3649 8.05082 34.9719 7.05082C33.1944 6.79503 31.4318 6.4442 29.6919 5.99982C28.0629 5.56782 27.1239 6.95282 27.2119 8.29982C27.3625 11.1819 28.1715 13.9911 29.5769 16.5118C31.4769 19.9448 33.9229 21.6208 37.1599 21.7228C38.6422 21.7564 40.0817 21.2244 41.1859 20.2348C43.002 22.707 44.0938 25.6361 44.3389 28.6938V28.6998C44.3109 30.2998 44.3389 31.7698 44.3729 33.1938V33.3578C44.3789 33.6409 44.4955 33.9103 44.6977 34.1084C44.9 34.3066 45.1717 34.4176 45.4549 34.4178H45.4859C45.7729 34.4115 46.0458 34.2915 46.2443 34.0841C46.4429 33.8767 46.551 33.5989 46.5449 33.3118V33.1468C46.5049 31.3468 46.4639 29.4848 46.5449 27.3748C46.6494 24.0179 47.5184 20.7291 49.0859 17.7588C50.5128 18.7874 52.2889 19.2091 54.0259 18.9318C57.6079 18.2768 60.0479 15.9988 61.5819 11.8688C62.7164 8.83103 63.1409 5.57393 62.8229 2.34682Z" fill="#3DCB78"/>
<path d="M412.4 39.935C414.957 39.935 417.405 40.39 419.745 41.3C422.128 42.1667 424.122 43.3367 425.725 44.81C427.372 46.2833 428.347 47.865 428.65 49.555C428.867 50.6817 428.715 51.9383 428.195 53.325C427.675 54.6683 426.852 55.86 425.725 56.9C424.598 57.8967 423.233 58.4383 421.63 58.525C421.067 58.525 420.352 58.46 419.485 58.33C418.618 58.2 417.773 57.94 416.95 57.55C416.17 57.16 415.542 56.5967 415.065 55.86C415.715 55.5133 416.148 55.145 416.365 54.755C416.582 54.365 416.647 53.975 416.56 53.585C416.387 52.7183 415.867 52.0033 415 51.44C414.177 50.8767 413.158 50.53 411.945 50.4C411.252 50.3133 410.45 50.335 409.54 50.465C408.63 50.5517 407.785 50.855 407.005 51.375C406.268 51.8517 405.748 52.6533 405.445 53.78C405.272 54.43 405.293 55.145 405.51 55.925C405.77 56.6617 406.377 57.3767 407.33 58.07C408.283 58.72 409.735 59.2833 411.685 59.76C414.675 60.4533 417.448 61.2117 420.005 62.035C422.605 62.8583 424.88 63.8767 426.83 65.09C428.78 66.3033 430.275 67.82 431.315 69.64C432.398 71.4167 432.897 73.6483 432.81 76.335C432.767 78.1117 432.29 79.975 431.38 81.925C430.47 83.875 429.148 85.695 427.415 87.385C425.682 89.0317 423.558 90.375 421.045 91.415C418.532 92.455 415.672 92.975 412.465 92.975C410.428 92.975 408.327 92.8017 406.16 92.455C403.993 92.1083 401.935 91.5667 399.985 90.83C398.078 90.0933 396.388 89.1183 394.915 87.905C393.615 86.7783 392.683 85.37 392.12 83.68C391.6 81.99 391.492 80.3 391.795 78.61C392.098 76.8767 392.857 75.4033 394.07 74.19C395.327 72.9767 397.06 72.305 399.27 72.175C398.837 73.475 399.075 74.7533 399.985 76.01C400.938 77.2233 402.347 78.2633 404.21 79.13C406.073 79.9533 408.11 80.4517 410.32 80.625C412.617 80.7983 414.61 80.7117 416.3 80.365C418.033 80.0183 418.987 79.3033 419.16 78.22C419.377 76.92 419.117 75.88 418.38 75.1C417.643 74.32 416.625 73.735 415.325 73.345C414.025 72.9117 412.617 72.565 411.1 72.305C409.583 72.0017 408.175 71.6983 406.875 71.395C405.142 70.9183 403.387 70.3117 401.61 69.575C399.877 68.795 398.273 67.82 396.8 66.65C395.37 65.48 394.2 64.05 393.29 62.36C392.38 60.67 391.903 58.6983 391.86 56.445C391.817 53.8017 392.358 51.4617 393.485 49.425C394.612 47.345 396.15 45.6117 398.1 44.225C400.05 42.795 402.26 41.7333 404.73 41.04C407.243 40.3033 409.8 39.935 412.4 39.935ZM473.881 80.235C473.925 81.1883 473.99 82.3583 474.076 83.745C474.206 85.1317 474.488 86.475 474.921 87.775C475.355 89.075 476.048 90.115 477.001 90.895C475.918 91.6317 474.813 92.1517 473.686 92.455C472.56 92.8017 471.455 92.8883 470.371 92.715C470.068 92.6283 469.743 92.52 469.396 92.39C469.05 92.3033 468.573 92.1733 467.966 92C466.97 91.6967 465.8 91.6317 464.456 91.805C463.113 91.9783 461.705 92.195 460.231 92.455C458.801 92.7583 457.393 92.91 456.006 92.91C453.753 92.91 451.5 92.52 449.246 91.74C446.993 90.9167 444.956 89.66 443.136 87.97C441.316 86.28 439.93 84.135 438.976 81.535C438.023 78.935 437.741 75.815 438.131 72.175C438.391 69.6617 439.106 67.365 440.276 65.285C441.446 63.1617 442.876 61.3417 444.566 59.825C446.3 58.265 448.12 57.0733 450.026 56.25C451.976 55.3833 453.861 54.9717 455.681 55.015C457.068 55.0583 458.13 55.1017 458.866 55.145C459.646 55.1883 460.643 55.2967 461.856 55.47C462.593 55.5567 463.525 55.4483 464.651 55.145C465.778 54.8417 466.905 54.5167 468.031 54.17C469.201 53.78 470.198 53.585 471.021 53.585C472.278 53.5417 473.166 53.585 473.686 53.715C474.206 53.8017 474.64 53.8883 474.986 53.975C474.726 54.755 474.51 55.925 474.336 57.485C474.163 59.045 474.033 60.8217 473.946 62.815C473.903 64.765 473.86 66.8017 473.816 68.925C473.773 71.0483 473.751 73.085 473.751 75.035C473.795 76.985 473.838 78.7183 473.881 80.235ZM449.441 74.255C449.528 76.4217 449.918 78.1117 450.611 79.325C451.348 80.495 452.215 81.3183 453.211 81.795C454.251 82.2717 455.248 82.51 456.201 82.51C458.108 82.5533 459.516 81.8167 460.426 80.3C461.336 78.7833 461.77 76.6817 461.726 73.995C461.726 73.2583 461.64 72.3917 461.466 71.395C461.336 70.3983 461.076 69.4233 460.686 68.47C460.34 67.5167 459.841 66.715 459.191 66.065C458.585 65.415 457.783 65.09 456.786 65.09C454.793 65.09 453.038 65.8267 451.521 67.3C450.048 68.7733 449.355 71.0917 449.441 74.255ZM503.174 54.625C505.73 55.015 507.637 55.6217 508.894 56.445C510.194 57.2683 511.039 58.2433 511.429 59.37C511.862 60.4533 511.97 61.6667 511.754 63.01C511.58 64.3533 511.255 65.74 510.779 67.17C510.432 68.2533 509.912 69.6183 509.219 71.265C508.569 72.9117 507.875 74.6017 507.139 76.335C506.445 78.0683 505.795 79.6283 505.189 81.015C504.582 82.4017 504.17 83.3767 503.954 83.94C503.13 85.8467 502.394 87.3633 501.744 88.49C501.137 89.5733 500.509 90.375 499.859 90.895C499.209 91.415 498.407 91.74 497.454 91.87C496.24 92.0433 495.157 91.9133 494.204 91.48C493.25 91.0033 492.514 90.2883 491.994 89.335C491.95 89.2483 491.864 88.815 491.734 88.035C491.604 87.255 491.474 86.4533 491.344 85.63C491.214 84.7633 491.084 84.2 490.954 83.94C490.477 82.5967 489.849 80.9933 489.069 79.13C488.332 77.2233 487.53 75.1867 486.664 73.02C485.84 70.8533 484.995 68.73 484.129 66.65C483.305 64.57 482.547 62.685 481.854 60.995C481.16 59.2617 480.597 57.8967 480.164 56.9C479.774 55.86 479.579 55.34 479.579 55.34C480.229 55.2533 481.139 55.145 482.309 55.015C483.479 54.885 484.714 54.8633 486.014 54.95C487.357 55.0367 488.614 55.3617 489.784 55.925C490.954 56.4883 491.885 57.3983 492.579 58.655C492.795 59.0883 493.077 59.7817 493.424 60.735C493.814 61.645 494.182 62.49 494.529 63.27C494.789 63.79 495.049 64.3967 495.309 65.09C495.612 65.7833 495.959 66.39 496.349 66.91C496.739 67.43 497.194 67.7117 497.714 67.755C498.407 67.7983 498.97 67.5167 499.404 66.91C499.88 66.3033 500.249 65.6317 500.509 64.895C500.769 64.115 500.964 63.5517 501.094 63.205C501.484 62.2083 501.852 61.1683 502.199 60.085C502.589 58.9583 502.87 57.9183 503.044 56.965C503.26 55.9683 503.304 55.1883 503.174 54.625ZM547.251 75.685C548.334 76.4217 549.027 77.4833 549.331 78.87C549.677 80.2133 549.634 81.6867 549.201 83.29C548.811 84.8933 548.009 86.4317 546.796 87.905C545.582 89.335 543.936 90.5267 541.856 91.48C539.819 92.4333 537.349 92.9317 534.446 92.975C532.019 93.0183 529.636 92.715 527.296 92.065C524.999 91.415 522.897 90.4183 520.991 89.075C519.127 87.7317 517.611 85.9983 516.441 83.875C515.271 81.7517 514.621 79.2167 514.491 76.27C514.447 75.6633 514.447 75.035 514.491 74.385C514.534 73.735 514.577 73.0633 514.621 72.37C514.621 72.1967 514.621 72.0233 514.621 71.85C514.664 71.6767 514.707 71.5033 514.751 71.33C515.184 68.73 516.072 66.3467 517.416 64.18C518.802 62.0133 520.492 60.1717 522.486 58.655C524.479 57.1383 526.602 56.0333 528.856 55.34C531.152 54.6033 533.406 54.3433 535.616 54.56C539.039 54.9067 541.682 55.8167 543.546 57.29C545.452 58.7633 546.687 60.5833 547.251 62.75C547.857 64.8733 547.879 67.17 547.316 69.64C547.012 70.8533 546.319 72.0667 545.236 73.28C544.196 74.45 542.896 75.5117 541.336 76.465C539.776 77.375 538.107 78.09 536.331 78.61C534.597 79.0867 532.907 79.2817 531.261 79.195C530.437 79.1517 530.004 79.4117 529.961 79.975C529.917 80.495 530.156 81.08 530.676 81.73C531.196 82.3367 531.889 82.7483 532.756 82.965C534.792 83.3983 536.699 83.42 538.476 83.03C540.296 82.5967 541.682 82.0117 542.636 81.275C543.416 80.6683 544.239 79.8667 545.106 78.87C545.972 77.83 546.687 76.7683 547.251 75.685ZM533.016 69.12C534.012 69.0333 534.879 68.73 535.616 68.21C536.396 67.6467 536.786 67.0617 536.786 66.455C536.829 65.5883 536.612 64.895 536.136 64.375C535.702 63.8117 534.944 63.5517 533.861 63.595C532.647 63.6383 531.477 63.8117 530.351 64.115C529.224 64.4183 528.552 65.0467 528.336 66C528.206 66.65 528.401 67.2133 528.921 67.69C529.441 68.1667 530.091 68.535 530.871 68.795C531.651 69.0117 532.366 69.12 533.016 69.12ZM575.663 54.365C576.53 54.1483 577.332 54.365 578.068 55.015C578.805 55.665 579.455 56.5533 580.018 57.68C580.625 58.7633 581.123 59.89 581.513 61.06C581.903 62.1867 582.207 63.14 582.423 63.92C582.64 64.7 582.748 65.09 582.748 65.09C582.748 65.09 582.228 65.1983 581.188 65.415C580.192 65.5883 578.935 65.9567 577.418 66.52C575.945 67.04 574.472 67.8417 572.998 68.925C572.132 69.575 571.308 70.355 570.528 71.265C569.748 72.175 569.077 73.345 568.513 74.775C567.95 76.1617 567.538 78.0033 567.278 80.3C567.148 81.47 567.127 82.6833 567.213 83.94C567.3 85.1967 567.343 86.2583 567.343 87.125C567.387 87.905 567.495 88.4683 567.668 88.815C567.885 89.1183 568.058 89.3783 568.188 89.595C567.625 90.115 566.585 90.7 565.068 91.35C563.595 91.9567 561.97 92.26 560.193 92.26C558.46 92.26 557.182 91.6967 556.358 90.57C555.535 89.4433 555.123 87.8833 555.123 85.89C555.123 85.4133 555.102 84.3733 555.058 82.77C555.058 81.1233 555.037 79.1517 554.993 76.855C554.993 74.5583 554.972 72.175 554.928 69.705C554.928 67.235 554.907 64.9383 554.863 62.815C554.863 60.6483 554.842 58.8933 554.798 57.55C554.798 56.2067 554.798 55.535 554.798 55.535C555.232 55.4483 555.968 55.3833 557.008 55.34C558.092 55.2967 559.262 55.34 560.518 55.47C561.775 55.6 562.945 55.9033 564.028 56.38C564.548 56.5967 565.242 56.8133 566.108 57.03C567.018 57.2033 567.885 57.29 568.708 57.29C569.575 57.29 570.203 57.16 570.593 56.9C571.417 56.2933 572.24 55.7733 573.063 55.34C573.93 54.9067 574.797 54.5817 575.663 54.365Z" fill="#3DCB78"/>
<path d="M159.795 53C159.275 54.6033 158.473 55.7733 157.39 56.51C156.307 57.2467 155.18 57.55 154.01 57.42C152.84 57.2467 151.843 56.6617 151.02 55.665C151.757 55.1017 151.973 54.495 151.67 53.845C151.41 53.1517 150.738 52.5883 149.655 52.155C148.572 51.6783 147.185 51.505 145.495 51.635C143.762 51.7217 142.007 52.285 140.23 53.325C138.497 54.365 137.045 55.86 135.875 57.81C134.705 59.76 134.055 62.1867 133.925 65.09C133.795 68.08 134.098 70.5067 134.835 72.37C135.572 74.2333 136.482 75.6633 137.565 76.66C138.692 77.6133 139.818 78.3067 140.945 78.74C142.072 79.13 142.982 79.39 143.675 79.52C144.585 79.6933 145.625 79.8233 146.795 79.91C148.008 79.9533 149.222 79.8667 150.435 79.65C151.648 79.4333 152.688 79.065 153.555 78.545C154.335 78.0683 155.31 77.44 156.48 76.66C157.65 75.8367 158.777 74.9267 159.86 73.93C160.943 72.9333 161.745 71.915 162.265 70.875C163.738 71.8717 164.648 73.28 164.995 75.1C165.385 76.92 165.233 78.87 164.54 80.95C163.847 83.03 162.633 85.0017 160.9 86.865C159.21 88.685 157 90.18 154.27 91.35C151.54 92.4767 148.312 92.9967 144.585 92.91C142.852 92.8667 140.858 92.5417 138.605 91.935C136.395 91.3283 134.163 90.375 131.91 89.075C129.657 87.7317 127.598 85.9767 125.735 83.81C123.915 81.6 122.528 78.87 121.575 75.62C120.622 72.37 120.362 68.535 120.795 64.115C121.185 59.9117 122.225 56.2933 123.915 53.26C125.648 50.2267 127.75 47.7567 130.22 45.85C132.733 43.9 135.377 42.4483 138.15 41.495C140.967 40.4983 143.653 39.9783 146.21 39.935C148.767 39.8483 150.977 40.2383 152.84 41.105C154.747 41.9717 156.285 43.0983 157.455 44.485C158.625 45.8283 159.405 47.28 159.795 48.84C160.228 50.3567 160.228 51.7433 159.795 53ZM171.471 86.67C171.471 86.3233 171.471 85.3917 171.471 83.875C171.471 82.315 171.471 80.3867 171.471 78.09C171.471 75.7933 171.449 73.28 171.406 70.55C171.406 67.7767 171.406 64.9817 171.406 62.165C171.406 59.3483 171.384 56.6833 171.341 54.17C171.341 51.6133 171.319 49.4033 171.276 47.54C171.232 45.7633 171.081 44.29 170.821 43.12C170.561 41.9067 170.409 41.17 170.366 40.91C170.886 40.8233 171.666 40.8017 172.706 40.845C173.746 40.845 174.894 40.975 176.151 41.235C177.451 41.4517 178.686 41.82 179.856 42.34C181.026 42.8167 182.001 43.51 182.781 44.42C183.561 45.2867 183.972 46.3917 184.016 47.735C184.059 48.5583 184.081 50.01 184.081 52.09C184.124 54.1267 184.146 56.5317 184.146 59.305C184.189 62.035 184.232 64.8517 184.276 67.755C184.319 70.615 184.341 73.3233 184.341 75.88C184.384 78.4367 184.406 80.5817 184.406 82.315C184.449 84.005 184.471 85.0017 184.471 85.305C184.471 86.215 184.709 87.1033 185.186 87.97C185.706 88.7933 186.247 89.3133 186.811 89.53C186.551 89.8767 185.966 90.3317 185.056 90.895C184.146 91.4583 183.084 91.9783 181.871 92.455C180.701 92.9317 179.509 93.235 178.296 93.365C177.299 93.4517 176.259 93.2133 175.176 92.65C174.136 92.13 173.247 91.35 172.511 90.31C171.817 89.27 171.471 88.0567 171.471 86.67ZM199.291 53.325C197.818 53.3683 196.496 52.9567 195.326 52.09C194.199 51.2233 193.333 50.1617 192.726 48.905C192.163 47.605 191.946 46.37 192.076 45.2C192.293 43.4233 193.094 42.1667 194.481 41.43C195.868 40.6933 197.319 40.3033 198.836 40.26C201.003 40.1733 202.693 40.7367 203.906 41.95C205.119 43.1633 205.726 44.55 205.726 46.11C205.726 47.15 205.488 48.2117 205.011 49.295C204.578 50.3783 203.884 51.31 202.931 52.09C201.978 52.8267 200.764 53.2383 199.291 53.325ZM206.181 85.435C206.224 86.215 206.463 86.8867 206.896 87.45C207.373 87.97 207.936 88.4683 208.586 88.945C208.283 89.335 207.893 89.7467 207.416 90.18C206.939 90.6133 206.224 91.025 205.271 91.415C204.361 91.7617 203.039 92.0433 201.306 92.26C200.743 92.3033 200.028 92.2383 199.161 92.065C198.294 91.935 197.428 91.5233 196.561 90.83C195.738 90.0933 195.066 88.945 194.546 87.385C194.026 85.7817 193.809 83.5933 193.896 80.82C193.939 80.3433 193.939 79.4117 193.896 78.025C193.896 76.6383 193.874 74.9917 193.831 73.085C193.831 71.1783 193.809 69.2067 193.766 67.17C193.766 65.1333 193.744 63.2483 193.701 61.515C193.701 59.7383 193.679 58.3083 193.636 57.225C193.636 56.0983 193.636 55.535 193.636 55.535C194.026 55.4917 194.676 55.4483 195.586 55.405C196.539 55.3183 197.579 55.3183 198.706 55.405C199.833 55.4917 200.916 55.7083 201.956 56.055C203.039 56.3583 203.949 56.8567 204.686 57.55C205.466 58.2433 205.921 59.175 206.051 60.345C206.268 61.9917 206.354 64.2017 206.311 66.975C206.268 69.705 206.203 72.695 206.116 75.945C206.029 79.1517 206.051 82.315 206.181 85.435ZM261.039 83.745C261.082 84.265 261.212 84.915 261.429 85.695C261.689 86.4317 261.927 87.1033 262.144 87.71C262.404 88.3167 262.534 88.62 262.534 88.62C262.317 88.88 261.862 89.3567 261.169 90.05C260.475 90.7433 259.587 91.3717 258.504 91.935C257.464 92.455 256.272 92.6067 254.929 92.39C252.545 91.9567 250.92 90.96 250.054 89.4C249.23 87.84 248.797 86.0633 248.754 84.07C248.754 83.7233 248.775 83.0517 248.819 82.055C248.862 81.0583 248.884 79.9533 248.884 78.74C248.927 77.4833 248.927 76.3133 248.884 75.23C248.884 74.1033 248.797 73.28 248.624 72.76C248.364 71.7633 247.974 71.1567 247.454 70.94C246.934 70.7233 246.392 70.7667 245.829 71.07C245.265 71.33 244.789 71.7633 244.399 72.37C244.009 72.9767 243.814 73.6267 243.814 74.32C243.77 75.4033 243.749 76.335 243.749 77.115C243.749 77.895 243.77 78.9133 243.814 80.17C243.814 80.4733 243.857 81.0367 243.944 81.86C244.03 82.6833 244.139 83.615 244.269 84.655C244.399 85.695 244.529 86.7133 244.659 87.71C244.832 88.6633 245.005 89.4433 245.179 90.05C244.095 90.83 242.817 91.48 241.344 92C239.914 92.52 238.072 92.52 235.819 92C234.649 91.74 233.782 91.1983 233.219 90.375C232.655 89.5517 232.265 88.5983 232.049 87.515C231.875 86.3883 231.789 85.24 231.789 84.07C231.789 82.9 231.789 81.8167 231.789 80.82C231.789 80.3433 231.81 79.585 231.854 78.545C231.94 77.505 231.984 76.4217 231.984 75.295C231.984 74.125 231.875 73.1933 231.659 72.5C231.485 71.9367 231.204 71.59 230.814 71.46C230.467 71.2867 230.164 71.2217 229.904 71.265C229.21 71.3083 228.604 71.5033 228.084 71.85C227.607 72.1967 227.282 72.9117 227.109 73.995C227.022 74.515 226.957 75.3817 226.914 76.595C226.914 77.765 226.914 79.0217 226.914 80.365C226.914 81.665 226.914 82.8133 226.914 83.81C226.957 84.8067 227 85.3917 227.044 85.565C227.174 86.1717 227.434 86.6267 227.824 86.93C228.214 87.19 228.409 87.32 228.409 87.32C228.409 87.32 228.17 87.6017 227.694 88.165C227.26 88.685 226.654 89.2917 225.874 89.985C225.094 90.6783 224.184 91.285 223.144 91.805C222.104 92.2817 220.977 92.455 219.764 92.325C218.594 92.2383 217.489 91.6317 216.449 90.505C215.452 89.3783 214.932 87.8183 214.889 85.825L214.694 60.865C214.65 59.305 214.477 58.0267 214.174 57.03C213.914 56.0333 213.784 55.535 213.784 55.535C214.217 55.4483 214.997 55.3833 216.124 55.34C217.25 55.2967 218.507 55.34 219.894 55.47C221.28 55.5567 222.537 55.86 223.664 56.38C224.357 56.6833 225.137 56.8133 226.004 56.77C226.914 56.6833 227.694 56.445 228.344 56.055C229.08 55.665 229.817 55.3183 230.554 55.015C231.334 54.7117 232.114 54.5167 232.894 54.43C233.804 54.3433 234.909 54.43 236.209 54.69C237.509 54.95 238.852 55.4267 240.239 56.12C241.105 56.5533 242.124 56.8567 243.294 57.03C244.464 57.2033 245.265 57.1383 245.699 56.835C246.565 56.2283 247.475 55.7083 248.429 55.275C249.425 54.8417 250.422 54.56 251.419 54.43C252.155 54.3433 253.022 54.3867 254.019 54.56C255.059 54.69 256.055 55.015 257.009 55.535C258.005 56.055 258.85 56.7917 259.544 57.745C260.28 58.6983 260.735 59.9117 260.909 61.385C261.039 62.6417 261.104 64.2883 261.104 66.325C261.147 68.3183 261.147 70.4417 261.104 72.695C261.06 74.905 261.017 77.0067 260.974 79C260.974 80.95 260.995 82.5317 261.039 83.745ZM303.619 80.235C303.662 81.1883 303.727 82.3583 303.814 83.745C303.944 85.1317 304.225 86.475 304.659 87.775C305.092 89.075 305.785 90.115 306.739 90.895C305.655 91.6317 304.55 92.1517 303.424 92.455C302.297 92.8017 301.192 92.8883 300.109 92.715C299.805 92.6283 299.48 92.52 299.134 92.39C298.787 92.3033 298.31 92.1733 297.704 92C296.707 91.6967 295.537 91.6317 294.194 91.805C292.85 91.9783 291.442 92.195 289.969 92.455C288.539 92.7583 287.13 92.91 285.744 92.91C283.49 92.91 281.237 92.52 278.984 91.74C276.73 90.9167 274.694 89.66 272.874 87.97C271.054 86.28 269.667 84.135 268.714 81.535C267.76 78.935 267.479 75.815 267.869 72.175C268.129 69.6617 268.844 67.365 270.014 65.285C271.184 63.1617 272.614 61.3417 274.304 59.825C276.037 58.265 277.857 57.0733 279.764 56.25C281.714 55.3833 283.599 54.9717 285.419 55.015C286.805 55.0583 287.867 55.1017 288.604 55.145C289.384 55.1883 290.38 55.2967 291.594 55.47C292.33 55.5567 293.262 55.4483 294.389 55.145C295.515 54.8417 296.642 54.5167 297.769 54.17C298.939 53.78 299.935 53.585 300.759 53.585C302.015 53.5417 302.904 53.585 303.424 53.715C303.944 53.8017 304.377 53.8883 304.724 53.975C304.464 54.755 304.247 55.925 304.074 57.485C303.9 59.045 303.77 60.8217 303.684 62.815C303.64 64.765 303.597 66.8017 303.554 68.925C303.51 71.0483 303.489 73.085 303.489 75.035C303.532 76.985 303.575 78.7183 303.619 80.235ZM279.179 74.255C279.265 76.4217 279.655 78.1117 280.349 79.325C281.085 80.495 281.952 81.3183 282.949 81.795C283.989 82.2717 284.985 82.51 285.939 82.51C287.845 82.5533 289.254 81.8167 290.164 80.3C291.074 78.7833 291.507 76.6817 291.464 73.995C291.464 73.2583 291.377 72.3917 291.204 71.395C291.074 70.3983 290.814 69.4233 290.424 68.47C290.077 67.5167 289.579 66.715 288.929 66.065C288.322 65.415 287.52 65.09 286.524 65.09C284.53 65.09 282.775 65.8267 281.259 67.3C279.785 68.7733 279.092 71.0917 279.179 74.255ZM337.576 55.925C338.009 56.3583 338.334 57.16 338.551 58.33C338.811 59.4567 338.876 60.7133 338.746 62.1C338.659 63.4433 338.334 64.6783 337.771 65.805C337.251 66.8883 336.449 67.625 335.366 68.015C333.676 68.6217 332.441 69.705 331.661 71.265C330.881 72.825 330.426 74.7967 330.296 77.18V82.705C330.382 83.3983 330.664 83.9617 331.141 84.395C331.661 84.8283 332.159 85.1317 332.636 85.305C333.156 85.4783 333.416 85.565 333.416 85.565C333.416 85.565 333.329 85.8683 333.156 86.475C333.026 87.0817 332.766 87.7967 332.376 88.62C331.986 89.4433 331.422 90.245 330.686 91.025C329.949 91.7617 328.996 92.2817 327.826 92.585C327.219 92.715 326.396 92.7367 325.356 92.65C324.359 92.6067 323.341 92.4117 322.301 92.065C321.261 91.7183 320.394 91.2417 319.701 90.635C319.311 90.2883 318.986 89.92 318.726 89.53C318.466 89.14 318.271 88.555 318.141 87.775C318.054 86.995 318.011 85.89 318.011 84.46V77.505C317.967 74.9917 317.426 72.9117 316.386 71.265C315.346 69.575 313.981 68.1233 312.291 66.91C311.511 66.3467 310.947 65.4367 310.601 64.18C310.297 62.88 310.102 61.515 310.016 60.085C309.929 58.655 309.907 57.4417 309.951 56.445C310.167 56.4883 310.752 56.575 311.706 56.705C312.659 56.835 313.482 56.9 314.176 56.9C315.562 56.8567 316.516 56.315 317.036 55.275C317.556 54.235 317.816 52.935 317.816 51.375L317.751 45.59C318.141 45.5467 318.791 45.5033 319.701 45.46C320.654 45.3733 321.694 45.3733 322.821 45.46C323.947 45.5467 325.031 45.7633 326.071 46.11C327.154 46.4133 328.064 46.9117 328.801 47.605C329.581 48.2983 330.036 49.23 330.166 50.4C330.166 50.53 330.166 50.7033 330.166 50.92C330.209 51.0933 330.231 51.31 330.231 51.57H330.296C330.296 52.1333 330.361 52.805 330.491 53.585C330.664 54.365 330.902 55.015 331.206 55.535C331.509 55.9683 331.986 56.2933 332.636 56.51C333.286 56.6833 333.914 56.7917 334.521 56.835C335.171 56.835 335.647 56.7917 335.951 56.705C336.427 56.575 336.774 56.4667 336.991 56.38C337.207 56.25 337.402 56.0983 337.576 55.925ZM374.83 75.685C375.913 76.4217 376.606 77.4833 376.91 78.87C377.256 80.2133 377.213 81.6867 376.78 83.29C376.39 84.8933 375.588 86.4317 374.375 87.905C373.161 89.335 371.515 90.5267 369.435 91.48C367.398 92.4333 364.928 92.9317 362.025 92.975C359.598 93.0183 357.215 92.715 354.875 92.065C352.578 91.415 350.476 90.4183 348.57 89.075C346.706 87.7317 345.19 85.9983 344.02 83.875C342.85 81.7517 342.2 79.2167 342.07 76.27C342.026 75.6633 342.026 75.035 342.07 74.385C342.113 73.735 342.156 73.0633 342.2 72.37C342.2 72.1967 342.2 72.0233 342.2 71.85C342.243 71.6767 342.286 71.5033 342.33 71.33C342.763 68.73 343.651 66.3467 344.995 64.18C346.381 62.0133 348.071 60.1717 350.065 58.655C352.058 57.1383 354.181 56.0333 356.435 55.34C358.731 54.6033 360.985 54.3433 363.195 54.56C366.618 54.9067 369.261 55.8167 371.125 57.29C373.031 58.7633 374.266 60.5833 374.83 62.75C375.436 64.8733 375.458 67.17 374.895 69.64C374.591 70.8533 373.898 72.0667 372.815 73.28C371.775 74.45 370.475 75.5117 368.915 76.465C367.355 77.375 365.686 78.09 363.91 78.61C362.176 79.0867 360.486 79.2817 358.84 79.195C358.016 79.1517 357.583 79.4117 357.54 79.975C357.496 80.495 357.735 81.08 358.255 81.73C358.775 82.3367 359.468 82.7483 360.335 82.965C362.371 83.3983 364.278 83.42 366.055 83.03C367.875 82.5967 369.261 82.0117 370.215 81.275C370.995 80.6683 371.818 79.8667 372.685 78.87C373.551 77.83 374.266 76.7683 374.83 75.685ZM360.595 69.12C361.591 69.0333 362.458 68.73 363.195 68.21C363.975 67.6467 364.365 67.0617 364.365 66.455C364.408 65.5883 364.191 64.895 363.715 64.375C363.281 63.8117 362.523 63.5517 361.44 63.595C360.226 63.6383 359.056 63.8117 357.93 64.115C356.803 64.4183 356.131 65.0467 355.915 66C355.785 66.65 355.98 67.2133 356.5 67.69C357.02 68.1667 357.67 68.535 358.45 68.795C359.23 69.0117 359.945 69.12 360.595 69.12Z" fill="#3DCB78"/>
</svg>
